<?xml version="1.0" encoding="utf-8" standalone="no"?>
<!DOCTYPE svg PUBLIC "-//W3C//DTD SVG 1.1//EN"
  "http://www.w3.org/Graphics/SVG/1.1/DTD/svg11.dtd">
<!-- Created with matplotlib (http://matplotlib.org/) -->
<svg height="720pt" version="1.1" viewBox="0 0 720 720" width="720pt" xmlns="http://www.w3.org/2000/svg" xmlns:xlink="http://www.w3.org/1999/xlink">
 <defs>
  <style type="text/css">
*{stroke-linecap:butt;stroke-linejoin:round;}
  </style>
 </defs>
 <g id="figure_1">
  <g id="patch_1">
   <path d="M 0 720 
L 720 720 
L 720 0 
L 0 0 
z
" style="fill:#ffffff;"/>
  </g>
  <g id="axes_1">
   <g id="patch_2">
    <path d="M 76.116051 468 
L 686.26 468 
L 686.26 38.757984 
L 76.116051 38.757984 
z
" style="fill:#ffffff;"/>
   </g>
   <g id="PolyCollection_1">
    <defs>
     <path d="M 137.130446 -326.812189 
L 137.130446 -327.071497 
L 167.637643 -327.69841 
L 198.144841 -328.754683 
L 228.652038 -330.255847 
L 259.159236 -332.222257 
L 289.666433 -334.679781 
L 320.17363 -337.663057 
L 350.680828 -341.22497 
L 381.188025 -345.450541 
L 411.695223 -350.449775 
L 442.20242 -356.327825 
L 472.709618 -363.176534 
L 503.216815 -371.072987 
L 533.724013 -380.060853 
L 564.23121 -390.11436 
L 594.738408 -401.08747 
L 625.245605 -412.655295 
L 655.752803 -424.266793 
L 655.752803 -378.076444 
L 655.752803 -378.076444 
L 625.245605 -378.167876 
L 594.738408 -376.362924 
L 564.23121 -373.055931 
L 533.724013 -368.715939 
L 503.216815 -363.793042 
L 472.709618 -358.662741 
L 442.20242 -353.605825 
L 411.695223 -348.812629 
L 381.188025 -344.402952 
L 350.680828 -340.456363 
L 320.17363 -337.02751 
L 289.666433 -334.132891 
L 259.159236 -331.754701 
L 228.652038 -329.861636 
L 198.144841 -328.422529 
L 167.637643 -327.411957 
L 137.130446 -326.812189 
z
" id="m67b2ccc1f3"/>
    </defs>
    <g clip-path="url(#p02ba1bc2f3)">
     <use style="fill:#0d153a;fill-opacity:0.2;" x="0" xlink:href="#m67b2ccc1f3" y="720"/>
    </g>
   </g>
   <g id="PolyCollection_2">
    <defs>
     <path d="M 137.130446 -303.639971 
L 137.130446 -304.568737 
L 167.637643 -305.212204 
L 198.144841 -306.308764 
L 228.652038 -307.892876 
L 259.159236 -310.012418 
L 289.666433 -312.731922 
L 320.17363 -316.138035 
L 350.680828 -320.347323 
L 381.188025 -325.517854 
L 411.695223 -331.867544 
L 442.20242 -339.705066 
L 472.709618 -349.485686 
L 503.216815 -361.921217 
L 533.724013 -378.219466 
L 564.23121 -400.662139 
L 594.738408 -434.121982 
L 625.245605 -490.388247 
L 655.752803 -603.123367 
L 655.752803 -433.731113 
L 655.752803 -433.731113 
L 625.245605 -413.91134 
L 594.738408 -391.278471 
L 564.23121 -372.423713 
L 533.724013 -357.689314 
L 503.216815 -346.278985 
L 472.709618 -337.350005 
L 442.20242 -330.249997 
L 411.695223 -324.517108 
L 381.188025 -319.832263 
L 350.680828 -315.975202 
L 320.17363 -312.792776 
L 289.666433 -310.177597 
L 259.159236 -308.053934 
L 228.652038 -306.368544 
L 198.144841 -305.084893 
L 167.637643 -304.179635 
L 137.130446 -303.639971 
z
" id="mdc049a27d4"/>
    </defs>
    <g clip-path="url(#p02ba1bc2f3)">
     <use style="fill:#a42604;fill-opacity:0.2;" x="0" xlink:href="#mdc049a27d4" y="720"/>
    </g>
   </g>
   <g id="PolyCollection_3">
    <defs>
     <path d="M 137.130446 -278.934867 
L 137.130446 -279.578921 
L 167.637643 -280.318636 
L 198.144841 -281.581314 
L 228.652038 -283.412073 
L 259.159236 -285.875729 
L 289.666433 -289.060048 
L 320.17363 -293.080953 
L 350.680828 -298.089598 
L 381.188025 -304.281649 
L 411.695223 -311.90952 
L 442.20242 -321.298627 
L 472.709618 -332.868997 
L 503.216815 -347.163953 
L 533.724013 -364.88801 
L 564.23121 -386.956545 
L 594.738408 -414.560314 
L 625.245605 -449.249186 
L 655.752803 -493.045348 
L 655.752803 -406.020039 
L 655.752803 -406.020039 
L 625.245605 -383.229613 
L 594.738408 -364.880142 
L 564.23121 -349.846855 
L 533.724013 -337.3593 
L 503.216815 -326.88002 
L 472.709618 -318.024092 
L 442.20242 -310.508236 
L 411.695223 -304.118775 
L 381.188025 -298.691206 
L 350.680828 -294.096883 
L 320.17363 -290.234125 
L 289.666433 -287.022152 
L 259.159236 -284.396916 
L 228.652038 -282.308288 
L 198.144841 -280.718249 
L 167.637643 -279.599641 
L 137.130446 -278.934867 
z
" id="mdb8a4d352c"/>
    </defs>
    <g clip-path="url(#p02ba1bc2f3)">
     <use style="fill:#187795;fill-opacity:0.2;" x="0" xlink:href="#mdb8a4d352c" y="720"/>
    </g>
   </g>
   <g id="matplotlib.axis_1">
    <g id="xtick_1">
     <g id="line2d_1">
      <defs>
       <path d="M 0 0 
L 0 3.5 
" id="maa3dee5b98" style="stroke:#000000;stroke-width:2;"/>
      </defs>
      <g>
       <use style="stroke:#000000;stroke-width:2;" x="106.623248" xlink:href="#maa3dee5b98" y="468"/>
      </g>
     </g>
     <g id="text_1">
      <!-- $0.0$ -->
      <defs>
       <path d="M 42 31.640625 
C 42 37.75 41.90625 48.125 37.703125 56.109375 
C 34 63.109375 28.09375 65.59375 22.90625 65.59375 
C 18.09375 65.59375 12 63.40625 8.203125 56.203125 
C 4.203125 48.71875 3.796875 39.4375 3.796875 31.640625 
C 3.796875 25.953125 3.90625 17.28125 7 9.671875 
C 11.296875 -0.609375 19 -2 22.90625 -2 
C 27.5 -2 34.5 -0.109375 38.59375 9.375 
C 41.59375 16.28125 42 24.359375 42 31.640625 
z
M 22.90625 -0.40625 
C 16.5 -0.40625 12.703125 5.078125 11.296875 12.6875 
C 10.203125 18.5625 10.203125 27.15625 10.203125 32.75 
C 10.203125 40.4375 10.203125 46.828125 11.5 52.921875 
C 13.40625 61.390625 19 64 22.90625 64 
C 27 64 32.296875 61.296875 34.203125 53.125 
C 35.5 47.4375 35.59375 40.734375 35.59375 32.75 
C 35.59375 26.25 35.59375 18.265625 34.40625 12.375 
C 32.296875 1.484375 26.40625 -0.40625 22.90625 -0.40625 
z
" id="CMR17-48"/>
       <path d="M 18.40625 4.796875 
C 18.40625 7.6875 16 9.671875 13.59375 9.671875 
C 10.703125 9.671875 8.703125 7.28125 8.703125 4.890625 
C 8.703125 2 11.09375 0 13.5 0 
C 16.40625 0 18.40625 2.390625 18.40625 4.796875 
z
" id="CMMI12-58"/>
      </defs>
      <g transform="translate(92.405872 492.035969)scale(0.24 -0.24)">
       <use transform="scale(0.996264)" xlink:href="#CMR17-48"/>
       <use transform="translate(45.690477 0)scale(0.996264)" xlink:href="#CMMI12-58"/>
       <use transform="translate(72.787654 0)scale(0.996264)" xlink:href="#CMR17-48"/>
      </g>
     </g>
    </g>
    <g id="xtick_2">
     <g id="line2d_2">
      <g>
       <use style="stroke:#000000;stroke-width:2;" x="228.652038" xlink:href="#maa3dee5b98" y="468"/>
      </g>
     </g>
     <g id="text_2">
      <!-- $0.2$ -->
      <defs>
       <path d="M 41.703125 15.453125 
L 39.90625 15.453125 
C 38.90625 8.375 38.09375 7.171875 37.703125 6.5625 
C 37.203125 5.765625 30 5.765625 28.59375 5.765625 
L 9.40625 5.765625 
C 13 9.671875 20 16.75 28.5 24.953125 
C 34.59375 30.734375 41.703125 37.53125 41.703125 47.421875 
C 41.703125 59.21875 32.296875 66 21.796875 66 
C 10.796875 66 4.09375 56.3125 4.09375 47.34375 
C 4.09375 43.4375 7 42.9375 8.203125 42.9375 
C 9.203125 42.9375 12.203125 43.546875 12.203125 47.03125 
C 12.203125 50.109375 9.59375 51 8.203125 51 
C 7.59375 51 7 50.90625 6.59375 50.703125 
C 8.5 59.21875 14.296875 63.40625 20.40625 63.40625 
C 29.09375 63.40625 34.796875 56.515625 34.796875 47.421875 
C 34.796875 38.734375 29.703125 31.25 24 24.75 
L 4.09375 2.28125 
L 4.09375 0 
L 39.296875 0 
z
" id="CMR17-50"/>
      </defs>
      <g transform="translate(214.434662 492.035969)scale(0.24 -0.24)">
       <use transform="scale(0.996264)" xlink:href="#CMR17-48"/>
       <use transform="translate(45.690477 0)scale(0.996264)" xlink:href="#CMMI12-58"/>
       <use transform="translate(72.787654 0)scale(0.996264)" xlink:href="#CMR17-50"/>
      </g>
     </g>
    </g>
    <g id="xtick_3">
     <g id="line2d_3">
      <g>
       <use style="stroke:#000000;stroke-width:2;" x="350.680828" xlink:href="#maa3dee5b98" y="468"/>
      </g>
     </g>
     <g id="text_3">
      <!-- $0.4$ -->
      <defs>
       <path d="M 33.59375 64.40625 
C 33.59375 66.5 33.5 66.5 31.703125 66.5 
L 2 19.59375 
L 2 17 
L 27.796875 17 
L 27.796875 7.140625 
C 27.796875 3.5 27.59375 2.5 20.59375 2.5 
L 18.703125 2.5 
L 18.703125 0 
C 21.90625 0 27.296875 0 30.703125 0 
C 34.09375 0 39.5 0 42.703125 0 
L 42.703125 2.5 
L 40.796875 2.5 
C 33.796875 2.5 33.59375 3.5 33.59375 7.140625 
L 33.59375 17 
L 43.796875 17 
L 43.796875 19.59375 
L 33.59375 19.59375 
z
M 28.09375 57.859375 
L 28.09375 19.59375 
L 4 19.59375 
z
" id="CMR17-52"/>
      </defs>
      <g transform="translate(336.463452 492.035969)scale(0.24 -0.24)">
       <use transform="scale(0.996264)" xlink:href="#CMR17-48"/>
       <use transform="translate(45.690477 0)scale(0.996264)" xlink:href="#CMMI12-58"/>
       <use transform="translate(72.787654 0)scale(0.996264)" xlink:href="#CMR17-52"/>
      </g>
     </g>
    </g>
    <g id="xtick_4">
     <g id="line2d_4">
      <g>
       <use style="stroke:#000000;stroke-width:2;" x="472.709618" xlink:href="#maa3dee5b98" y="468"/>
      </g>
     </g>
     <g id="text_4">
      <!-- $0.6$ -->
      <defs>
       <path d="M 10.59375 34 
C 10.59375 57.65625 21.796875 63 28.296875 63 
C 30.40625 63 35.5 62.640625 37.5 59 
C 35.90625 59 32.90625 59 32.90625 55.515625 
C 32.90625 52.828125 35.09375 51.921875 36.5 51.921875 
C 37.40625 51.921875 40.09375 52.3125 40.09375 55.625 
C 40.09375 61.78125 35.09375 65.296875 28.203125 65.296875 
C 16.296875 65.296875 3.796875 52.96875 3.796875 31 
C 3.796875 3.953125 15.09375 -2 23.09375 -2 
C 32.796875 -2 42 6.671875 42 20.046875 
C 42 32.515625 33.90625 41.59375 23.703125 41.59375 
C 17.59375 41.59375 13.09375 37.609375 10.59375 30.625 
z
M 23.09375 0.390625 
C 10.796875 0.390625 10.796875 18.75 10.796875 22.4375 
C 10.796875 29.625 14.203125 40 23.5 40 
C 25.203125 40 30.09375 40 33.40625 33.125 
C 35.203125 29.21875 35.203125 25.140625 35.203125 20.140625 
C 35.203125 14.75 35.203125 10.78125 33.09375 6.78125 
C 30.90625 2.671875 27.703125 0.390625 23.09375 0.390625 
z
" id="CMR17-54"/>
      </defs>
      <g transform="translate(458.492242 492.035969)scale(0.24 -0.24)">
       <use transform="scale(0.996264)" xlink:href="#CMR17-48"/>
       <use transform="translate(45.690477 0)scale(0.996264)" xlink:href="#CMMI12-58"/>
       <use transform="translate(72.787654 0)scale(0.996264)" xlink:href="#CMR17-54"/>
      </g>
     </g>
    </g>
    <g id="xtick_5">
     <g id="line2d_5">
      <g>
       <use style="stroke:#000000;stroke-width:2;" x="594.738408" xlink:href="#maa3dee5b98" y="468"/>
      </g>
     </g>
     <g id="text_5">
      <!-- $0.8$ -->
      <defs>
       <path d="M 27.203125 35.375 
C 33.5 38.546875 39.90625 43.328125 39.90625 50.984375 
C 39.90625 60.015625 31.09375 65.296875 23 65.296875 
C 13.90625 65.296875 5.90625 58.734375 5.90625 49.6875 
C 5.90625 47.203125 6.5 42.921875 10.40625 39.140625 
C 11.40625 38.15625 15.59375 35.171875 18.296875 33.28125 
C 13.796875 30.984375 3.296875 25.53125 3.296875 14.59375 
C 3.296875 4.359375 13.09375 -2 22.796875 -2 
C 33.5 -2 42.5 5.65625 42.5 15.78125 
C 42.5 24.84375 36.40625 29.015625 32.40625 31.703125 
z
M 14.09375 44.09375 
C 13.296875 44.59375 9.296875 47.671875 9.296875 52.359375 
C 9.296875 58.421875 15.59375 63 22.796875 63 
C 30.703125 63 36.5 57.4375 36.5 50.96875 
C 36.5 41.703125 26.09375 36.421875 25.59375 36.421875 
C 25.5 36.421875 25.40625 36.421875 24.59375 37.03125 
z
M 32.5 23.734375 
C 34 22.640625 38.796875 19.375 38.796875 13.296875 
C 38.796875 5.953125 31.40625 0.390625 23 0.390625 
C 13.90625 0.390625 7 6.84375 7 14.6875 
C 7 22.546875 13.09375 29.09375 20 32.1875 
z
" id="CMR17-56"/>
      </defs>
      <g transform="translate(580.521032 492.035969)scale(0.24 -0.24)">
       <use transform="scale(0.996264)" xlink:href="#CMR17-48"/>
       <use transform="translate(45.690477 0)scale(0.996264)" xlink:href="#CMMI12-58"/>
       <use transform="translate(72.787654 0)scale(0.996264)" xlink:href="#CMR17-56"/>
      </g>
     </g>
    </g>
    <g id="text_6">
     <!-- $\bar m$ -->
     <defs>
      <path d="M 39.90625 55 
L 39.90625 57.28125 
L 5.90625 57.28125 
L 5.90625 55 
z
" id="CMR17-22"/>
      <path d="M 20.59375 29.234375 
C 20.796875 29.84375 23.296875 34.828125 27 38.015625 
C 29.59375 40.40625 33 42.015625 36.90625 42.015625 
C 40.90625 42.015625 42.296875 39.015625 42.296875 35.03125 
C 42.296875 34.421875 42.296875 32.4375 41.09375 27.734375 
L 38.59375 17.46875 
C 37.796875 14.46875 35.90625 7.078125 35.703125 5.984375 
C 35.296875 4.484375 34.703125 1.890625 34.703125 1.5 
C 34.703125 0.09375 35.796875 -1 37.296875 -1 
C 40.296875 -1 40.796875 1.296875 41.703125 4.890625 
L 47.703125 28.734375 
C 47.90625 29.53125 53.09375 42.015625 64.09375 42.015625 
C 68.09375 42.015625 69.5 39.015625 69.5 35.03125 
C 69.5 29.4375 65.59375 18.5625 63.40625 12.578125 
C 62.5 10.171875 62 8.875 62 7.078125 
C 62 2.59375 65.09375 -1 69.90625 -1 
C 79.203125 -1 82.703125 13.671875 82.703125 14.265625 
C 82.703125 14.765625 82.296875 15.171875 81.703125 15.171875 
C 80.796875 15.171875 80.703125 14.875 80.203125 13.171875 
C 77.90625 5.1875 74.203125 1 70.203125 1 
C 69.203125 1 67.59375 1 67.59375 4.203125 
C 67.59375 6.8125 68.796875 10 69.203125 11.09375 
C 71 15.90625 75.5 27.703125 75.5 33.515625 
C 75.5 39.5 72 44 64.40625 44 
C 57.703125 44 52.296875 40.21875 48.296875 34.328125 
C 48 39.71875 44.703125 44 37.203125 44 
C 28.296875 44 23.59375 37.734375 21.796875 35.234375 
C 21.5 40.90625 17.40625 44 13 44 
C 10.09375 44 7.796875 42.609375 5.90625 38.8125 
C 4.09375 35.21875 2.703125 29.140625 2.703125 28.734375 
C 2.703125 28.34375 3.09375 27.84375 3.796875 27.84375 
C 4.59375 27.84375 4.703125 27.9375 5.296875 30.234375 
C 6.796875 36.125 8.703125 42.015625 12.703125 42.015625 
C 15 42.015625 15.796875 40.40625 15.796875 37.421875 
C 15.796875 35.21875 14.796875 31.328125 14.09375 28.234375 
L 11.296875 17.46875 
C 10.90625 15.5625 9.796875 11.078125 9.296875 9.28125 
C 8.59375 6.6875 7.5 2 7.5 1.5 
C 7.5 0.09375 8.59375 -1 10.09375 -1 
C 11.296875 -1 12.703125 -0.40625 13.5 1.09375 
C 13.703125 1.59375 14.59375 5.09375 15.09375 7.078125 
L 17.296875 16.0625 
z
" id="CMMI12-109"/>
     </defs>
     <g transform="translate(370.948758 518.164702)scale(0.24 -0.24)">
      <use transform="translate(19.818381 0.006461)scale(0.996264)" xlink:href="#CMR17-22"/>
      <use transform="scale(0.996264)" xlink:href="#CMMI12-109"/>
     </g>
    </g>
   </g>
   <g id="matplotlib.axis_2">
    <g id="ytick_1">
     <g id="line2d_6">
      <defs>
       <path d="M 0 0 
L -3.5 0 
" id="m946297f067" style="stroke:#000000;stroke-width:2;"/>
      </defs>
      <g>
       <use style="stroke:#000000;stroke-width:2;" x="76.116051" xlink:href="#m946297f067" y="441.172374"/>
      </g>
     </g>
     <g id="text_7">
      <!-- $0$ -->
      <g transform="translate(58.150336 449.690358)scale(0.24 -0.24)">
       <use transform="scale(0.996264)" xlink:href="#CMR17-48"/>
      </g>
     </g>
    </g>
    <g id="ytick_2">
     <g id="line2d_7">
      <g>
       <use style="stroke:#000000;stroke-width:2;" x="76.116051" xlink:href="#m946297f067" y="374.103309"/>
      </g>
     </g>
     <g id="text_8">
      <!-- $1$ -->
      <defs>
       <path d="M 26.59375 63.40625 
C 26.59375 65.5 26.5 65.5 25.09375 65.5 
C 21.203125 61.1875 15.296875 59.796875 9.703125 59.796875 
C 9.40625 59.796875 8.90625 59.796875 8.796875 59.5 
C 8.703125 59.296875 8.703125 59.09375 8.703125 57 
C 11.796875 57 17 57.59375 21 59.984375 
L 21 7.203125 
C 21 3.6875 20.796875 2.5 12.203125 2.5 
L 9.203125 2.5 
L 9.203125 0 
C 14 0 19 0 23.796875 0 
C 28.59375 0 33.59375 0 38.40625 0 
L 38.40625 2.5 
L 35.40625 2.5 
C 26.796875 2.5 26.59375 3.59375 26.59375 7.15625 
z
" id="CMR17-49"/>
      </defs>
      <g transform="translate(58.150336 382.621293)scale(0.24 -0.24)">
       <use transform="scale(0.996264)" xlink:href="#CMR17-49"/>
      </g>
     </g>
    </g>
    <g id="ytick_3">
     <g id="line2d_8">
      <g>
       <use style="stroke:#000000;stroke-width:2;" x="76.116051" xlink:href="#m946297f067" y="307.034244"/>
      </g>
     </g>
     <g id="text_9">
      <!-- $2$ -->
      <g transform="translate(58.150336 315.552228)scale(0.24 -0.24)">
       <use transform="scale(0.996264)" xlink:href="#CMR17-50"/>
      </g>
     </g>
    </g>
    <g id="ytick_4">
     <g id="line2d_9">
      <g>
       <use style="stroke:#000000;stroke-width:2;" x="76.116051" xlink:href="#m946297f067" y="239.965179"/>
      </g>
     </g>
     <g id="text_10">
      <!-- $3$ -->
      <defs>
       <path d="M 22.09375 33.703125 
C 31 33.703125 34.90625 25.96875 34.90625 17.03125 
C 34.90625 5 28.5 0.390625 22.703125 0.390625 
C 17.40625 0.390625 8.796875 3.03125 6.09375 10.828125 
C 6.59375 10.625 7.09375 10.625 7.59375 10.625 
C 10 10.625 11.796875 12.21875 11.796875 14.8125 
C 11.796875 17.703125 9.59375 19 7.59375 19 
C 5.90625 19 3.296875 18.203125 3.296875 14.46875 
C 3.296875 5.234375 12.296875 -2 22.90625 -2 
C 34 -2 42.5 6.71875 42.5 16.953125 
C 42.5 26.671875 34.5 33.703125 25 34.796875 
C 32.59375 36.375 39.90625 43.0625 39.90625 52.015625 
C 39.90625 59.6875 32 65.296875 23 65.296875 
C 13.90625 65.296875 5.90625 59.828125 5.90625 52.015625 
C 5.90625 48.59375 8.5 48 9.796875 48 
C 11.90625 48 13.703125 49.296875 13.703125 51.890625 
C 13.703125 54.46875 11.90625 55.765625 9.796875 55.765625 
C 9.40625 55.765625 8.90625 55.765625 8.5 55.578125 
C 11.40625 61.859375 19.296875 63 22.796875 63 
C 26.296875 63 32.90625 61.328125 32.90625 51.875 
C 32.90625 49.109375 32.5 44.1875 29.09375 39.84375 
C 26.09375 36 22.703125 36 19.40625 35.6875 
C 18.90625 35.6875 16.59375 35.453125 16.203125 35.453125 
C 15.5 35.359375 15.09375 35.265625 15.09375 34.5 
C 15.09375 33.796875 15.203125 33.703125 17.203125 33.703125 
z
" id="CMR17-51"/>
      </defs>
      <g transform="translate(58.150336 248.483163)scale(0.24 -0.24)">
       <use transform="scale(0.996264)" xlink:href="#CMR17-51"/>
      </g>
     </g>
    </g>
    <g id="ytick_5">
     <g id="line2d_10">
      <g>
       <use style="stroke:#000000;stroke-width:2;" x="76.116051" xlink:href="#m946297f067" y="172.896114"/>
      </g>
     </g>
     <g id="text_11">
      <!-- $4$ -->
      <g transform="translate(58.150336 181.414099)scale(0.24 -0.24)">
       <use transform="scale(0.996264)" xlink:href="#CMR17-52"/>
      </g>
     </g>
    </g>
    <g id="ytick_6">
     <g id="line2d_11">
      <g>
       <use style="stroke:#000000;stroke-width:2;" x="76.116051" xlink:href="#m946297f067" y="105.827049"/>
      </g>
     </g>
     <g id="text_12">
      <!-- $5$ -->
      <defs>
       <path d="M 11.40625 57.6875 
C 12.40625 57.28125 16.5 56 20.703125 56 
C 30 56 35.09375 61.109375 38 64.0625 
C 38 64.953125 38 65.5 37.40625 65.5 
C 37.296875 65.5 37.09375 65.5 36.296875 65.046875 
C 32.796875 63.40625 28.703125 62.078125 23.703125 62.078125 
C 20.703125 62.078125 16.203125 62.484375 11.296875 64.671875 
C 10.203125 65.171875 10 65.171875 9.90625 65.171875 
C 9.40625 65.171875 9.296875 65.0625 9.296875 63.078125 
L 9.296875 34.421875 
C 9.296875 32.640625 9.296875 32.140625 10.296875 32.140625 
C 10.796875 32.140625 11 32.34375 11.5 33.03125 
C 14.703125 37.515625 19.09375 39.40625 24.09375 39.40625 
C 27.59375 39.40625 35.09375 37.21875 35.09375 20.140625 
C 35.09375 16.953125 35.09375 11.171875 32.09375 6.578125 
C 29.59375 2.484375 25.703125 0.390625 21.40625 0.390625 
C 14.796875 0.390625 8.09375 5 6.296875 12.71875 
C 6.703125 12.609375 7.5 12.421875 7.90625 12.421875 
C 9.203125 12.421875 11.703125 13.125 11.703125 16.21875 
C 11.703125 18.90625 9.796875 20 7.90625 20 
C 5.59375 20 4.09375 18.59375 4.09375 15.796875 
C 4.09375 7.09375 11 -2 21.59375 -2 
C 31.90625 -2 41.703125 6.875 41.703125 19.75 
C 41.703125 31.71875 33.90625 41 24.203125 41 
C 19.09375 41 14.796875 39.109375 11.40625 35.53125 
z
" id="CMR17-53"/>
      </defs>
      <g transform="translate(58.150336 114.345034)scale(0.24 -0.24)">
       <use transform="scale(0.996264)" xlink:href="#CMR17-53"/>
      </g>
     </g>
    </g>
    <g id="ytick_7">
     <g id="line2d_12">
      <g>
       <use style="stroke:#000000;stroke-width:2;" x="76.116051" xlink:href="#m946297f067" y="38.757984"/>
      </g>
     </g>
     <g id="text_13">
      <!-- $6$ -->
      <g transform="translate(58.150336 47.275969)scale(0.24 -0.24)">
       <use transform="scale(0.996264)" xlink:href="#CMR17-54"/>
      </g>
     </g>
    </g>
    <g id="text_14">
     <!-- $E/E_{FG}$ -->
     <defs>
      <path d="M 69.5 23.265625 
C 69.59375 23.5625 69.90625 24.28125 69.90625 24.671875 
C 69.90625 25.171875 69.5 25.671875 68.90625 25.671875 
C 68.5 25.671875 68.296875 25.578125 68 25.265625 
C 67.796875 25.171875 67.796875 24.96875 66.90625 22.953125 
C 61 8.90625 56.703125 2.890625 40.703125 2.890625 
L 26.09375 2.890625 
C 24.703125 2.890625 24.5 2.890625 23.90625 3 
C 22.796875 3.09375 22.703125 3.296875 22.703125 4.09375 
C 22.703125 4.796875 22.90625 5.390625 23.09375 6.296875 
L 30 34 
L 39.90625 34 
C 47.703125 34 48.296875 32.28125 48.296875 29.28125 
C 48.296875 28.28125 48.296875 27.375 47.59375 24.375 
C 47.40625 23.96875 47.296875 23.5625 47.296875 23.265625 
C 47.296875 22.5625 47.796875 22.265625 48.40625 22.265625 
C 49.296875 22.265625 49.40625 22.953125 49.796875 24.359375 
L 55.5 47.53125 
C 55.5 48.015625 55.09375 48.515625 54.5 48.515625 
C 53.59375 48.515625 53.5 48.125 53.09375 46.71875 
C 51.09375 39.078125 49.09375 36.890625 40.203125 36.890625 
L 30.703125 36.890625 
L 36.90625 61.40625 
C 37.796875 64.90625 38 64.90625 42.09375 64.90625 
L 56.40625 64.90625 
C 68.703125 64.90625 71.203125 61.609375 71.203125 54.03125 
C 71.203125 53.921875 71.203125 51.140625 70.796875 47.84375 
C 70.703125 47.4375 70.59375 46.84375 70.59375 46.640625 
C 70.59375 45.84375 71.09375 45.546875 71.703125 45.546875 
C 72.40625 45.546875 72.796875 45.953125 73 47.734375 
L 75.09375 65.21875 
C 75.09375 65.546875 75.296875 66.609375 75.296875 66.828125 
C 75.296875 68 74.40625 68 72.59375 68 
L 23.796875 68 
C 21.90625 68 20.90625 68 20.90625 66.078125 
C 20.90625 64.90625 21.59375 64.90625 23.296875 64.90625 
C 29.5 64.90625 29.5 64.28125 29.5 63.3125 
C 29.5 62.8125 29.40625 62.40625 29.09375 61.3125 
L 15.59375 7.390625 
C 14.703125 3.890625 14.5 2.890625 7.5 2.890625 
C 5.59375 2.890625 4.59375 2.890625 4.59375 1.09375 
C 4.59375 0 5.203125 0 7.203125 0 
L 57.40625 0 
C 59.59375 0 59.703125 0.09375 60.40625 1.71875 
z
" id="CMMI12-69"/>
      <path d="M 42.90625 71.28125 
C 42.90625 71.390625 43.5 72.90625 43.5 73.09375 
C 43.5 74.296875 42.5 75 41.703125 75 
C 41.203125 75 40.296875 75 39.5 72.796875 
L 6 -21.296875 
C 6 -21.40625 5.40625 -22.890625 5.40625 -23.09375 
C 5.40625 -24.296875 6.40625 -25 7.203125 -25 
C 7.796875 -25 8.703125 -24.890625 9.40625 -22.796875 
z
" id="CMMI12-61"/>
      <path d="M 29.703125 32.109375 
L 39.296875 32.109375 
C 46.90625 32.109375 47.5 30.40625 47.5 27.515625 
C 47.5 26.21875 47.296875 24.828125 46.796875 22.625 
C 46.59375 22.234375 46.5 21.734375 46.5 21.53125 
C 46.5 20.828125 46.90625 20.4375 47.59375 20.4375 
C 48.40625 20.4375 48.5 20.828125 48.90625 22.421875 
L 54.703125 45.859375 
C 54.703125 46.265625 54.40625 46.859375 53.703125 46.859375 
C 52.796875 46.859375 52.703125 46.46875 52.296875 44.734375 
C 50.203125 37.125 48.203125 35 39.5 35 
L 30.40625 35 
L 36.90625 61.34375 
C 37.796875 64.90625 38 64.90625 42.09375 64.90625 
L 55.5 64.90625 
C 68 64.90625 69.796875 61.21875 69.796875 54.125 
C 69.796875 53.53125 69.796875 51.328125 69.5 48.734375 
C 69.40625 48.34375 69.203125 47.046875 69.203125 46.640625 
C 69.203125 45.84375 69.703125 45.546875 70.296875 45.546875 
C 71 45.546875 71.40625 45.953125 71.59375 47.734375 
L 73.703125 65.21875 
C 73.703125 65.546875 73.90625 66.609375 73.90625 66.828125 
C 73.90625 68 73 68 71.203125 68 
L 23.796875 68 
C 21.90625 68 20.90625 68 20.90625 66.078125 
C 20.90625 64.90625 21.59375 64.90625 23.296875 64.90625 
C 29.5 64.90625 29.5 64.265625 29.5 63.28125 
C 29.5 62.78125 29.40625 62.375 29.09375 61.28125 
L 15.59375 7.390625 
C 14.703125 3.890625 14.5 2.890625 7.5 2.890625 
C 5.59375 2.890625 4.59375 2.890625 4.59375 1.09375 
C 4.59375 0 5.5 0 6.09375 0 
C 8 0 10 0 11.90625 0 
L 24.90625 0 
C 27.09375 0 29.5 0 31.703125 0 
C 32.59375 0 33.796875 0 33.796875 1.796875 
C 33.796875 2.890625 33.203125 2.890625 31 2.890625 
C 23.09375 2.890625 22.90625 3.578125 22.90625 5.0625 
C 22.90625 5.5625 23.09375 6.34375 23.296875 7.015625 
z
" id="CMMI12-70"/>
      <path d="M 74.59375 69.109375 
C 74.59375 70 73.90625 70 73.703125 70 
C 73.5 70 73.09375 70 72.296875 69 
L 65.40625 60.765625 
C 64.90625 61.5625 62.90625 65.046875 59 67.328125 
C 54.703125 70 50.40625 70 48.90625 70 
C 27.5 70 5 48.359375 5 24.921875 
C 5 8.53125 16.40625 -2 31.40625 -2 
C 38.59375 -2 47.703125 0.390625 52.703125 6.671875 
C 53.796875 2.890625 56 0.1875 56.703125 0.1875 
C 57.203125 0.1875 57.296875 0.5 57.40625 0.5 
C 57.5 0.6875 58.296875 4.21875 58.796875 6.015625 
L 60.40625 12.453125 
C 61.203125 15.765625 61.59375 17.171875 62.296875 20.171875 
C 63.296875 24 63.5 24 69 24 
C 69.40625 24 70.59375 24 70.59375 26.03125 
C 70.59375 27.09375 69.59375 27.09375 69.296875 27.09375 
C 67.59375 27.09375 65.703125 27.09375 63.90625 27.09375 
L 58.5 27.09375 
C 54.296875 27.09375 49.90625 27.09375 45.796875 27.09375 
C 44.90625 27.09375 43.703125 27.09375 43.703125 25.171875 
C 43.703125 24.09375 44.5 24.09375 44.5 24 
L 47 24 
C 54.90625 24 54.90625 23.265625 54.90625 21.90625 
C 54.90625 21.796875 53 11.734375 51.09375 8.765625 
C 47.296875 3.1875 39.40625 0.890625 33.5 0.890625 
C 25.796875 0.890625 13.296875 4.875 13.296875 22.03125 
C 13.296875 28.6875 15.703125 43.875 25.40625 55.09375 
C 31.703125 62.25 41 67.109375 49.796875 67.109375 
C 61.59375 67.109375 65.796875 57.109375 65.796875 47.984375 
C 65.796875 46.40625 65.40625 44.234375 65.40625 42.84375 
C 65.40625 41.953125 66.40625 41.953125 66.703125 41.953125 
C 67.796875 41.953125 67.90625 42.046875 68.296875 43.828125 
z
" id="CMMI12-71"/>
     </defs>
     <g transform="translate(49.057572 290.16951)rotate(-90)scale(0.24 -0.24)">
      <use transform="translate(0 14.943915)scale(0.996264)" xlink:href="#CMMI12-69"/>
      <use transform="translate(78.051636 14.943915)scale(0.996264)" xlink:href="#CMMI12-61"/>
      <use transform="translate(126.826555 14.943915)scale(0.996264)" xlink:href="#CMMI12-69"/>
      <use transform="translate(199.037773 0)scale(0.697382)" xlink:href="#CMMI12-70"/>
      <use transform="translate(252.725284 0)scale(0.697382)" xlink:href="#CMMI12-71"/>
     </g>
    </g>
   </g>
   <g id="LineCollection_1">
    <path clip-path="url(#p02ba1bc2f3)" d="M 106.623248 393.546922 
L 106.623248 392.69066 
" style="fill:none;stroke:#0d153a;stroke-width:3;"/>
    <path clip-path="url(#p02ba1bc2f3)" d="M 167.637643 392.853368 
L 167.637643 391.994166 
" style="fill:none;stroke:#0d153a;stroke-width:3;"/>
    <path clip-path="url(#p02ba1bc2f3)" d="M 228.652038 390.389734 
L 228.652038 389.531525 
" style="fill:none;stroke:#0d153a;stroke-width:3;"/>
    <path clip-path="url(#p02ba1bc2f3)" d="M 289.666433 385.761532 
L 289.666433 384.906108 
" style="fill:none;stroke:#0d153a;stroke-width:3;"/>
    <path clip-path="url(#p02ba1bc2f3)" d="M 350.680828 378.91921 
L 350.680828 378.063633 
" style="fill:none;stroke:#0d153a;stroke-width:3;"/>
    <path clip-path="url(#p02ba1bc2f3)" d="M 411.695223 367.843515 
L 411.695223 366.994761 
" style="fill:none;stroke:#0d153a;stroke-width:3;"/>
    <path clip-path="url(#p02ba1bc2f3)" d="M 472.709618 350.437552 
L 472.709618 349.590217 
" style="fill:none;stroke:#0d153a;stroke-width:3;"/>
    <path clip-path="url(#p02ba1bc2f3)" d="M 533.724013 320.084063 
L 533.724013 319.239452 
" style="fill:none;stroke:#0d153a;stroke-width:3;"/>
    <path clip-path="url(#p02ba1bc2f3)" d="M 594.738408 257.910415 
L 594.738408 257.074301 
" style="fill:none;stroke:#0d153a;stroke-width:3;"/>
    <path clip-path="url(#p02ba1bc2f3)" d="M 655.752803 69.974956 
L 655.752803 69.142072 
" style="fill:none;stroke:#0d153a;stroke-width:3;"/>
   </g>
   <g id="LineCollection_2">
    <path clip-path="url(#p02ba1bc2f3)" d="M 106.623248 414.770836 
L 106.623248 413.597401 
" style="fill:none;stroke:#a42604;stroke-width:3;"/>
    <path clip-path="url(#p02ba1bc2f3)" d="M 167.637643 413.873514 
L 167.637643 412.700528 
" style="fill:none;stroke:#a42604;stroke-width:3;"/>
    <path clip-path="url(#p02ba1bc2f3)" d="M 228.652038 411.124735 
L 228.652038 409.961605 
" style="fill:none;stroke:#a42604;stroke-width:3;"/>
    <path clip-path="url(#p02ba1bc2f3)" d="M 289.666433 406.543534 
L 289.666433 405.382275 
" style="fill:none;stroke:#a42604;stroke-width:3;"/>
    <path clip-path="url(#p02ba1bc2f3)" d="M 350.680828 399.228886 
L 350.680828 398.075886 
" style="fill:none;stroke:#a42604;stroke-width:3;"/>
    <path clip-path="url(#p02ba1bc2f3)" d="M 411.695223 387.876713 
L 411.695223 386.730079 
" style="fill:none;stroke:#a42604;stroke-width:3;"/>
    <path clip-path="url(#p02ba1bc2f3)" d="M 472.709618 369.883291 
L 472.709618 368.752758 
" style="fill:none;stroke:#a42604;stroke-width:3;"/>
    <path clip-path="url(#p02ba1bc2f3)" d="M 533.724013 339.0192 
L 533.724013 337.896339 
" style="fill:none;stroke:#a42604;stroke-width:3;"/>
    <path clip-path="url(#p02ba1bc2f3)" d="M 594.738408 276.373423 
L 594.738408 275.260714 
" style="fill:none;stroke:#a42604;stroke-width:3;"/>
    <path clip-path="url(#p02ba1bc2f3)" d="M 655.752803 87.594239 
L 655.752803 86.495409 
" style="fill:none;stroke:#a42604;stroke-width:3;"/>
   </g>
   <g id="LineCollection_3">
    <path clip-path="url(#p02ba1bc2f3)" d="M 106.623248 439.849299 
L 106.623248 438.369853 
" style="fill:none;stroke:#187795;stroke-width:3;"/>
    <path clip-path="url(#p02ba1bc2f3)" d="M 167.637643 439.07371 
L 167.637643 437.59967 
" style="fill:none;stroke:#187795;stroke-width:3;"/>
    <path clip-path="url(#p02ba1bc2f3)" d="M 228.652038 435.904288 
L 228.652038 434.418333 
" style="fill:none;stroke:#187795;stroke-width:3;"/>
    <path clip-path="url(#p02ba1bc2f3)" d="M 289.666433 430.791202 
L 289.666433 429.305909 
" style="fill:none;stroke:#187795;stroke-width:3;"/>
    <path clip-path="url(#p02ba1bc2f3)" d="M 350.680828 422.667613 
L 350.680828 421.203986 
" style="fill:none;stroke:#187795;stroke-width:3;"/>
    <path clip-path="url(#p02ba1bc2f3)" d="M 411.695223 410.580644 
L 411.695223 409.134729 
" style="fill:none;stroke:#187795;stroke-width:3;"/>
    <path clip-path="url(#p02ba1bc2f3)" d="M 472.709618 392.01316 
L 472.709618 390.591763 
" style="fill:none;stroke:#187795;stroke-width:3;"/>
    <path clip-path="url(#p02ba1bc2f3)" d="M 533.724013 359.824876 
L 533.724013 358.431869 
" style="fill:none;stroke:#187795;stroke-width:3;"/>
    <path clip-path="url(#p02ba1bc2f3)" d="M 594.738408 296.163164 
L 594.738408 294.794623 
" style="fill:none;stroke:#187795;stroke-width:3;"/>
    <path clip-path="url(#p02ba1bc2f3)" d="M 655.752803 106.172759 
L 655.752803 104.812107 
" style="fill:none;stroke:#187795;stroke-width:3;"/>
   </g>
   <g id="line2d_13">
    <path clip-path="url(#p02ba1bc2f3)" d="M 106.623248 393.261481 
L 137.130446 393.058157 
L 167.637643 392.444817 
L 198.144841 391.411394 
L 228.652038 389.941259 
L 259.159236 388.011521 
L 289.666433 385.593664 
L 320.17363 382.654717 
L 350.680828 379.159333 
L 381.188025 375.073254 
L 411.695223 370.368798 
L 442.20242 365.033175 
L 472.709618 359.080362 
L 503.216815 352.566985 
L 533.724013 345.611604 
L 564.23121 338.414855 
L 594.738408 331.274803 
L 625.245605 324.588415 
L 655.752803 318.828381 
" style="fill:none;stroke:#0d153a;stroke-linecap:square;stroke-width:3;"/>
   </g>
   <g id="line2d_14">
    <path clip-path="url(#p02ba1bc2f3)" d="M 106.623248 416.091371 
L 137.130446 415.895646 
L 167.637643 415.30408 
L 198.144841 414.303172 
L 228.652038 412.86929 
L 259.159236 410.966824 
L 289.666433 408.545241 
L 320.17363 405.534594 
L 350.680828 401.838738 
L 381.188025 397.324942 
L 411.695223 391.807674 
L 442.20242 385.022469 
L 472.709618 376.582154 
L 503.216815 365.899899 
L 533.724013 352.04561 
L 564.23121 333.457074 
L 594.738408 307.299774 
L 625.245605 267.850206 
L 655.752803 201.57276 
" style="fill:none;stroke:#a42604;stroke-linecap:square;stroke-width:3;"/>
   </g>
   <g id="line2d_15">
    <path clip-path="url(#p02ba1bc2f3)" d="M 106.623248 440.975192 
L 137.130446 440.743106 
L 167.637643 440.040862 
L 198.144841 438.850218 
L 228.652038 437.139819 
L 259.159236 434.863677 
L 289.666433 431.9589 
L 320.17363 428.342461 
L 350.680828 423.906759 
L 381.188025 418.513573 
L 411.695223 411.985853 
L 442.20242 404.096568 
L 472.709618 394.553456 
L 503.216815 382.978014 
L 533.724013 368.876345 
L 564.23121 351.5983 
L 594.738408 330.279772 
L 625.245605 303.760601 
L 655.752803 270.467306 
" style="fill:none;stroke:#187795;stroke-linecap:square;stroke-width:3;"/>
   </g>
   <g id="line2d_16">
    <defs>
     <path d="M 3 0 
L -3 -0 
" id="m552194b876" style="stroke:#0d153a;stroke-width:3;"/>
    </defs>
    <g clip-path="url(#p02ba1bc2f3)">
     <use style="fill:#0d153a;stroke:#0d153a;stroke-width:3;" x="106.623248" xlink:href="#m552194b876" y="393.546922"/>
     <use style="fill:#0d153a;stroke:#0d153a;stroke-width:3;" x="167.637643" xlink:href="#m552194b876" y="392.853368"/>
     <use style="fill:#0d153a;stroke:#0d153a;stroke-width:3;" x="228.652038" xlink:href="#m552194b876" y="390.389734"/>
     <use style="fill:#0d153a;stroke:#0d153a;stroke-width:3;" x="289.666433" xlink:href="#m552194b876" y="385.761532"/>
     <use style="fill:#0d153a;stroke:#0d153a;stroke-width:3;" x="350.680828" xlink:href="#m552194b876" y="378.91921"/>
     <use style="fill:#0d153a;stroke:#0d153a;stroke-width:3;" x="411.695223" xlink:href="#m552194b876" y="367.843515"/>
     <use style="fill:#0d153a;stroke:#0d153a;stroke-width:3;" x="472.709618" xlink:href="#m552194b876" y="350.437552"/>
     <use style="fill:#0d153a;stroke:#0d153a;stroke-width:3;" x="533.724013" xlink:href="#m552194b876" y="320.084063"/>
     <use style="fill:#0d153a;stroke:#0d153a;stroke-width:3;" x="594.738408" xlink:href="#m552194b876" y="257.910415"/>
     <use style="fill:#0d153a;stroke:#0d153a;stroke-width:3;" x="655.752803" xlink:href="#m552194b876" y="69.974956"/>
    </g>
   </g>
   <g id="line2d_17">
    <g clip-path="url(#p02ba1bc2f3)">
     <use style="fill:#0d153a;stroke:#0d153a;stroke-width:3;" x="106.623248" xlink:href="#m552194b876" y="392.69066"/>
     <use style="fill:#0d153a;stroke:#0d153a;stroke-width:3;" x="167.637643" xlink:href="#m552194b876" y="391.994166"/>
     <use style="fill:#0d153a;stroke:#0d153a;stroke-width:3;" x="228.652038" xlink:href="#m552194b876" y="389.531525"/>
     <use style="fill:#0d153a;stroke:#0d153a;stroke-width:3;" x="289.666433" xlink:href="#m552194b876" y="384.906108"/>
     <use style="fill:#0d153a;stroke:#0d153a;stroke-width:3;" x="350.680828" xlink:href="#m552194b876" y="378.063633"/>
     <use style="fill:#0d153a;stroke:#0d153a;stroke-width:3;" x="411.695223" xlink:href="#m552194b876" y="366.994761"/>
     <use style="fill:#0d153a;stroke:#0d153a;stroke-width:3;" x="472.709618" xlink:href="#m552194b876" y="349.590217"/>
     <use style="fill:#0d153a;stroke:#0d153a;stroke-width:3;" x="533.724013" xlink:href="#m552194b876" y="319.239452"/>
     <use style="fill:#0d153a;stroke:#0d153a;stroke-width:3;" x="594.738408" xlink:href="#m552194b876" y="257.074301"/>
     <use style="fill:#0d153a;stroke:#0d153a;stroke-width:3;" x="655.752803" xlink:href="#m552194b876" y="69.142072"/>
    </g>
   </g>
   <g id="line2d_18">
    <defs>
     <path d="M 3 0 
L -3 -0 
" id="mae31ee8b2e" style="stroke:#a42604;stroke-width:3;"/>
    </defs>
    <g clip-path="url(#p02ba1bc2f3)">
     <use style="fill:#a42604;stroke:#a42604;stroke-width:3;" x="106.623248" xlink:href="#mae31ee8b2e" y="414.770836"/>
     <use style="fill:#a42604;stroke:#a42604;stroke-width:3;" x="167.637643" xlink:href="#mae31ee8b2e" y="413.873514"/>
     <use style="fill:#a42604;stroke:#a42604;stroke-width:3;" x="228.652038" xlink:href="#mae31ee8b2e" y="411.124735"/>
     <use style="fill:#a42604;stroke:#a42604;stroke-width:3;" x="289.666433" xlink:href="#mae31ee8b2e" y="406.543534"/>
     <use style="fill:#a42604;stroke:#a42604;stroke-width:3;" x="350.680828" xlink:href="#mae31ee8b2e" y="399.228886"/>
     <use style="fill:#a42604;stroke:#a42604;stroke-width:3;" x="411.695223" xlink:href="#mae31ee8b2e" y="387.876713"/>
     <use style="fill:#a42604;stroke:#a42604;stroke-width:3;" x="472.709618" xlink:href="#mae31ee8b2e" y="369.883291"/>
     <use style="fill:#a42604;stroke:#a42604;stroke-width:3;" x="533.724013" xlink:href="#mae31ee8b2e" y="339.0192"/>
     <use style="fill:#a42604;stroke:#a42604;stroke-width:3;" x="594.738408" xlink:href="#mae31ee8b2e" y="276.373423"/>
     <use style="fill:#a42604;stroke:#a42604;stroke-width:3;" x="655.752803" xlink:href="#mae31ee8b2e" y="87.594239"/>
    </g>
   </g>
   <g id="line2d_19">
    <g clip-path="url(#p02ba1bc2f3)">
     <use style="fill:#a42604;stroke:#a42604;stroke-width:3;" x="106.623248" xlink:href="#mae31ee8b2e" y="413.597401"/>
     <use style="fill:#a42604;stroke:#a42604;stroke-width:3;" x="167.637643" xlink:href="#mae31ee8b2e" y="412.700528"/>
     <use style="fill:#a42604;stroke:#a42604;stroke-width:3;" x="228.652038" xlink:href="#mae31ee8b2e" y="409.961605"/>
     <use style="fill:#a42604;stroke:#a42604;stroke-width:3;" x="289.666433" xlink:href="#mae31ee8b2e" y="405.382275"/>
     <use style="fill:#a42604;stroke:#a42604;stroke-width:3;" x="350.680828" xlink:href="#mae31ee8b2e" y="398.075886"/>
     <use style="fill:#a42604;stroke:#a42604;stroke-width:3;" x="411.695223" xlink:href="#mae31ee8b2e" y="386.730079"/>
     <use style="fill:#a42604;stroke:#a42604;stroke-width:3;" x="472.709618" xlink:href="#mae31ee8b2e" y="368.752758"/>
     <use style="fill:#a42604;stroke:#a42604;stroke-width:3;" x="533.724013" xlink:href="#mae31ee8b2e" y="337.896339"/>
     <use style="fill:#a42604;stroke:#a42604;stroke-width:3;" x="594.738408" xlink:href="#mae31ee8b2e" y="275.260714"/>
     <use style="fill:#a42604;stroke:#a42604;stroke-width:3;" x="655.752803" xlink:href="#mae31ee8b2e" y="86.495409"/>
    </g>
   </g>
   <g id="line2d_20">
    <defs>
     <path d="M 3 0 
L -3 -0 
" id="m165d5a8e65" style="stroke:#187795;stroke-width:3;"/>
    </defs>
    <g clip-path="url(#p02ba1bc2f3)">
     <use style="fill:#187795;stroke:#187795;stroke-width:3;" x="106.623248" xlink:href="#m165d5a8e65" y="439.849299"/>
     <use style="fill:#187795;stroke:#187795;stroke-width:3;" x="167.637643" xlink:href="#m165d5a8e65" y="439.07371"/>
     <use style="fill:#187795;stroke:#187795;stroke-width:3;" x="228.652038" xlink:href="#m165d5a8e65" y="435.904288"/>
     <use style="fill:#187795;stroke:#187795;stroke-width:3;" x="289.666433" xlink:href="#m165d5a8e65" y="430.791202"/>
     <use style="fill:#187795;stroke:#187795;stroke-width:3;" x="350.680828" xlink:href="#m165d5a8e65" y="422.667613"/>
     <use style="fill:#187795;stroke:#187795;stroke-width:3;" x="411.695223" xlink:href="#m165d5a8e65" y="410.580644"/>
     <use style="fill:#187795;stroke:#187795;stroke-width:3;" x="472.709618" xlink:href="#m165d5a8e65" y="392.01316"/>
     <use style="fill:#187795;stroke:#187795;stroke-width:3;" x="533.724013" xlink:href="#m165d5a8e65" y="359.824876"/>
     <use style="fill:#187795;stroke:#187795;stroke-width:3;" x="594.738408" xlink:href="#m165d5a8e65" y="296.163164"/>
     <use style="fill:#187795;stroke:#187795;stroke-width:3;" x="655.752803" xlink:href="#m165d5a8e65" y="106.172759"/>
    </g>
   </g>
   <g id="line2d_21">
    <g clip-path="url(#p02ba1bc2f3)">
     <use style="fill:#187795;stroke:#187795;stroke-width:3;" x="106.623248" xlink:href="#m165d5a8e65" y="438.369853"/>
     <use style="fill:#187795;stroke:#187795;stroke-width:3;" x="167.637643" xlink:href="#m165d5a8e65" y="437.59967"/>
     <use style="fill:#187795;stroke:#187795;stroke-width:3;" x="228.652038" xlink:href="#m165d5a8e65" y="434.418333"/>
     <use style="fill:#187795;stroke:#187795;stroke-width:3;" x="289.666433" xlink:href="#m165d5a8e65" y="429.305909"/>
     <use style="fill:#187795;stroke:#187795;stroke-width:3;" x="350.680828" xlink:href="#m165d5a8e65" y="421.203986"/>
     <use style="fill:#187795;stroke:#187795;stroke-width:3;" x="411.695223" xlink:href="#m165d5a8e65" y="409.134729"/>
     <use style="fill:#187795;stroke:#187795;stroke-width:3;" x="472.709618" xlink:href="#m165d5a8e65" y="390.591763"/>
     <use style="fill:#187795;stroke:#187795;stroke-width:3;" x="533.724013" xlink:href="#m165d5a8e65" y="358.431869"/>
     <use style="fill:#187795;stroke:#187795;stroke-width:3;" x="594.738408" xlink:href="#m165d5a8e65" y="294.794623"/>
     <use style="fill:#187795;stroke:#187795;stroke-width:3;" x="655.752803" xlink:href="#m165d5a8e65" y="104.812107"/>
    </g>
   </g>
   <g id="line2d_22">
    <path clip-path="url(#p02ba1bc2f3)" d="M 185.941962 468 
L 185.941962 38.757984 
" style="fill:none;stroke:#808080;stroke-dasharray:11.1,4.8;stroke-dashoffset:0;stroke-width:3;"/>
   </g>
   <g id="line2d_23">
    <path clip-path="url(#p02ba1bc2f3)" d="M 411.695223 468 
L 411.695223 38.757984 
" style="fill:none;stroke:#808080;stroke-dasharray:11.1,4.8;stroke-dashoffset:0;stroke-width:3;"/>
   </g>
   <g id="line2d_24">
    <path clip-path="url(#p02ba1bc2f3)" d="M 423.898102 468 
L 423.898102 38.757984 
" style="fill:none;stroke:#808080;stroke-dasharray:11.1,4.8;stroke-dashoffset:0;stroke-width:3;"/>
   </g>
   <g id="line2d_25">
    <path clip-path="url(#p02ba1bc2f3)" d="M 429.999541 468 
L 429.999541 38.757984 
" style="fill:none;stroke:#808080;stroke-dasharray:11.1,4.8;stroke-dashoffset:0;stroke-width:3;"/>
   </g>
   <g id="line2d_26">
    <path clip-path="url(#p02ba1bc2f3)" d="M 472.709618 468 
L 472.709618 38.757984 
" style="fill:none;stroke:#5d9fb0;stroke-dasharray:11.1,4.8;stroke-dashoffset:0;stroke-width:3;"/>
   </g>
   <g id="line2d_27">
    <path clip-path="url(#p02ba1bc2f3)" d="M 484.912497 468 
L 484.912497 38.757984 
" style="fill:none;stroke:#808080;stroke-dasharray:11.1,4.8;stroke-dashoffset:0;stroke-width:3;"/>
   </g>
   <g id="line2d_28">
    <path clip-path="url(#p02ba1bc2f3)" d="M 558.129771 468 
L 558.129771 38.757984 
" style="fill:none;stroke:#5d9fb0;stroke-dasharray:11.1,4.8;stroke-dashoffset:0;stroke-width:3;"/>
   </g>
   <g id="line2d_29">
    <path clip-path="url(#p02ba1bc2f3)" d="M 594.738408 468 
L 594.738408 38.757984 
" style="fill:none;stroke:#808080;stroke-dasharray:11.1,4.8;stroke-dashoffset:0;stroke-width:3;"/>
   </g>
   <g id="line2d_30">
    <defs>
     <path d="M -4 4 
L 4 4 
L 4 -4 
L -4 -4 
z
" id="md905491df6" style="stroke:#0d153a;stroke-linejoin:miter;stroke-width:3;"/>
    </defs>
    <g clip-path="url(#p02ba1bc2f3)">
     <use style="fill:none;stroke:#0d153a;stroke-linejoin:miter;stroke-width:3;" x="106.623248" xlink:href="#md905491df6" y="393.118791"/>
     <use style="fill:none;stroke:#0d153a;stroke-linejoin:miter;stroke-width:3;" x="167.637643" xlink:href="#md905491df6" y="392.423767"/>
     <use style="fill:none;stroke:#0d153a;stroke-linejoin:miter;stroke-width:3;" x="228.652038" xlink:href="#md905491df6" y="389.96063"/>
     <use style="fill:none;stroke:#0d153a;stroke-linejoin:miter;stroke-width:3;" x="289.666433" xlink:href="#md905491df6" y="385.33382"/>
     <use style="fill:none;stroke:#0d153a;stroke-linejoin:miter;stroke-width:3;" x="350.680828" xlink:href="#md905491df6" y="378.491421"/>
     <use style="fill:none;stroke:#0d153a;stroke-linejoin:miter;stroke-width:3;" x="411.695223" xlink:href="#md905491df6" y="367.419138"/>
     <use style="fill:none;stroke:#0d153a;stroke-linejoin:miter;stroke-width:3;" x="472.709618" xlink:href="#md905491df6" y="350.013884"/>
     <use style="fill:none;stroke:#0d153a;stroke-linejoin:miter;stroke-width:3;" x="533.724013" xlink:href="#md905491df6" y="319.661757"/>
     <use style="fill:none;stroke:#0d153a;stroke-linejoin:miter;stroke-width:3;" x="594.738408" xlink:href="#md905491df6" y="257.492358"/>
     <use style="fill:none;stroke:#0d153a;stroke-linejoin:miter;stroke-width:3;" x="655.752803" xlink:href="#md905491df6" y="69.558514"/>
    </g>
   </g>
   <g id="line2d_31">
    <defs>
     <path d="M -4 4 
L 4 4 
L 4 -4 
L -4 -4 
z
" id="me8c3e8e2d4" style="stroke:#a42604;stroke-linejoin:miter;stroke-width:3;"/>
    </defs>
    <g clip-path="url(#p02ba1bc2f3)">
     <use style="fill:none;stroke:#a42604;stroke-linejoin:miter;stroke-width:3;" x="106.623248" xlink:href="#me8c3e8e2d4" y="414.184118"/>
     <use style="fill:none;stroke:#a42604;stroke-linejoin:miter;stroke-width:3;" x="167.637643" xlink:href="#me8c3e8e2d4" y="413.287021"/>
     <use style="fill:none;stroke:#a42604;stroke-linejoin:miter;stroke-width:3;" x="228.652038" xlink:href="#me8c3e8e2d4" y="410.54317"/>
     <use style="fill:none;stroke:#a42604;stroke-linejoin:miter;stroke-width:3;" x="289.666433" xlink:href="#me8c3e8e2d4" y="405.962904"/>
     <use style="fill:none;stroke:#a42604;stroke-linejoin:miter;stroke-width:3;" x="350.680828" xlink:href="#me8c3e8e2d4" y="398.652386"/>
     <use style="fill:none;stroke:#a42604;stroke-linejoin:miter;stroke-width:3;" x="411.695223" xlink:href="#me8c3e8e2d4" y="387.303396"/>
     <use style="fill:none;stroke:#a42604;stroke-linejoin:miter;stroke-width:3;" x="472.709618" xlink:href="#me8c3e8e2d4" y="369.318025"/>
     <use style="fill:none;stroke:#a42604;stroke-linejoin:miter;stroke-width:3;" x="533.724013" xlink:href="#me8c3e8e2d4" y="338.457769"/>
     <use style="fill:none;stroke:#a42604;stroke-linejoin:miter;stroke-width:3;" x="594.738408" xlink:href="#me8c3e8e2d4" y="275.817068"/>
     <use style="fill:none;stroke:#a42604;stroke-linejoin:miter;stroke-width:3;" x="655.752803" xlink:href="#me8c3e8e2d4" y="87.044824"/>
    </g>
   </g>
   <g id="line2d_32">
    <defs>
     <path d="M -4 4 
L 4 4 
L 4 -4 
L -4 -4 
z
" id="m112d19acc3" style="stroke:#187795;stroke-linejoin:miter;stroke-width:3;"/>
    </defs>
    <g clip-path="url(#p02ba1bc2f3)">
     <use style="fill:none;stroke:#187795;stroke-linejoin:miter;stroke-width:3;" x="106.623248" xlink:href="#m112d19acc3" y="439.109576"/>
     <use style="fill:none;stroke:#187795;stroke-linejoin:miter;stroke-width:3;" x="167.637643" xlink:href="#m112d19acc3" y="438.33669"/>
     <use style="fill:none;stroke:#187795;stroke-linejoin:miter;stroke-width:3;" x="228.652038" xlink:href="#m112d19acc3" y="435.161311"/>
     <use style="fill:none;stroke:#187795;stroke-linejoin:miter;stroke-width:3;" x="289.666433" xlink:href="#m112d19acc3" y="430.048556"/>
     <use style="fill:none;stroke:#187795;stroke-linejoin:miter;stroke-width:3;" x="350.680828" xlink:href="#m112d19acc3" y="421.935799"/>
     <use style="fill:none;stroke:#187795;stroke-linejoin:miter;stroke-width:3;" x="411.695223" xlink:href="#m112d19acc3" y="409.857686"/>
     <use style="fill:none;stroke:#187795;stroke-linejoin:miter;stroke-width:3;" x="472.709618" xlink:href="#m112d19acc3" y="391.302462"/>
     <use style="fill:none;stroke:#187795;stroke-linejoin:miter;stroke-width:3;" x="533.724013" xlink:href="#m112d19acc3" y="359.128372"/>
     <use style="fill:none;stroke:#187795;stroke-linejoin:miter;stroke-width:3;" x="594.738408" xlink:href="#m112d19acc3" y="295.478894"/>
     <use style="fill:none;stroke:#187795;stroke-linejoin:miter;stroke-width:3;" x="655.752803" xlink:href="#m112d19acc3" y="105.492433"/>
    </g>
   </g>
   <g id="patch_3">
    <path d="M 76.116051 468 
L 76.116051 38.757984 
" style="fill:none;stroke:#000000;stroke-linecap:square;stroke-linejoin:miter;stroke-width:2;"/>
   </g>
   <g id="patch_4">
    <path d="M 686.26 468 
L 686.26 38.757984 
" style="fill:none;stroke:#000000;stroke-linecap:square;stroke-linejoin:miter;stroke-width:2;"/>
   </g>
   <g id="patch_5">
    <path d="M 76.116051 468 
L 686.26 468 
" style="fill:none;stroke:#000000;stroke-linecap:square;stroke-linejoin:miter;stroke-width:2;"/>
   </g>
   <g id="patch_6">
    <path d="M 76.116051 38.757984 
L 686.26 38.757984 
" style="fill:none;stroke:#000000;stroke-linecap:square;stroke-linejoin:miter;stroke-width:2;"/>
   </g>
   <g id="patch_7">
    <path d="M 84.232858 520.416743 
Q 126.623456 497.62393 169.014054 474.831116 
L 167.119774 471.308091 
Q 173.826395 471.108201 180.533017 470.908311 
Q 176.667815 476.392739 172.802613 481.877166 
L 170.908333 478.354141 
Q 128.517736 501.146954 86.127138 523.939768 
L 84.232858 520.416743 
z
" style="fill:#808080;"/>
   </g>
   <g id="text_15">
    <!-- $^{40}$K $^{53}$Cr -->
    <defs>
     <path d="M 17.203125 25.515625 
L 29.09375 37.4375 
L 54.796875 -0.03125 
L 65.796875 -0.03125 
L 35.796875 43.25 
L 65.5 73 
L 53.5 73 
L 17.203125 36.03125 
L 17.203125 73 
L 7.90625 73 
L 7.90625 -0.03125 
L 17.203125 -0.03125 
z
" id="Nimbus_Sans_L_Regular-75"/>
     <path d="M 66.203125 50.453125 
C 63.296875 66.4375 54.09375 74.21875 38.09375 74.21875 
C 28.296875 74.21875 20.40625 71.125 15 65.125 
C 8.40625 57.953125 4.796875 47.578125 4.796875 35.796875 
C 4.796875 23.828125 8.5 13.5625 15.40625 6.46875 
C 21 0.6875 28.203125 -2 37.703125 -2 
C 55.5 -2 65.5 7.578125 67.703125 26.828125 
L 58.09375 26.828125 
C 57.296875 21.859375 56.296875 18.46875 54.796875 15.578125 
C 51.796875 9.59375 45.59375 6.203125 37.796875 6.203125 
C 23.296875 6.203125 14.09375 17.765625 14.09375 35.90625 
C 14.09375 54.546875 22.90625 66 37 66 
C 42.90625 66 48.40625 64.21875 51.40625 61.40625 
C 54.09375 58.921875 55.59375 55.828125 56.703125 50.453125 
z
" id="Nimbus_Sans_L_Regular-67"/>
     <path d="M 6.90625 52.484375 
L 6.90625 0 
L 15.296875 0 
L 15.296875 27.203125 
C 15.296875 34.703125 17.203125 39.609375 21.203125 42.5 
C 23.796875 44.40625 26.296875 45 32.09375 45 
L 32.09375 53.625 
C 30.703125 53.8125 30 53.8125 28.90625 53.8125 
C 23.5 53.8125 19.40625 50.625 14.59375 42.90625 
L 14.59375 52.484375 
z
" id="Nimbus_Sans_L_Regular-114"/>
    </defs>
    <g transform="translate(2.898777 541.775971)scale(0.22 -0.22)">
     <use transform="translate(0 36.153639)scale(0.697382)" xlink:href="#CMR17-52"/>
     <use transform="translate(31.983182 36.153639)scale(0.697382)" xlink:href="#CMR17-48"/>
     <use transform="translate(64.464496 0)scale(0.996264)" xlink:href="#Nimbus_Sans_L_Regular-75"/>
     <use transform="translate(158.609697 36.153639)scale(0.697382)" xlink:href="#CMR17-53"/>
     <use transform="translate(190.592879 36.153639)scale(0.697382)" xlink:href="#CMR17-51"/>
     <use transform="translate(223.074193 0)scale(0.996264)" xlink:href="#Nimbus_Sans_L_Regular-67"/>
     <use transform="translate(295.004177 0)scale(0.996264)" xlink:href="#Nimbus_Sans_L_Regular-114"/>
    </g>
   </g>
   <g id="patch_8">
    <path d="M 270.638288 550.082804 
Q 331.76856 513.500236 392.898833 476.917667 
L 390.844798 473.48533 
Q 397.532945 472.97906 404.221092 472.472791 
Q 400.613997 478.127566 397.006903 483.782342 
L 394.952868 480.350005 
Q 333.822595 516.932573 272.692323 553.515141 
L 270.638288 550.082804 
z
" style="fill:#808080;"/>
   </g>
   <g id="text_16">
    <!-- $^{53}$Cr $^{161}$Dy -->
    <defs>
     <path d="M 8.90625 0 
L 37 0 
C 55.40625 0 66.703125 13.828125 66.703125 36.546875 
C 66.703125 59.171875 55.5 73 37 73 
L 8.90625 73 
z
M 18.203125 8.21875 
L 18.203125 64.78125 
L 35.40625 64.78125 
C 49.796875 64.78125 57.40625 55.0625 57.40625 36.453125 
C 57.40625 18.03125 49.796875 8.21875 35.40625 8.21875 
z
" id="Nimbus_Sans_L_Regular-68"/>
     <path d="M 38.796875 52.5 
L 24.296875 11.53125 
L 10.90625 52.5 
L 2 52.5 
L 19.703125 -0.328125 
L 16.5 -8.65625 
C 15.203125 -12.375 13.296875 -13.78125 9.796875 -13.78125 
C 8.59375 -13.78125 7.203125 -13.578125 5.40625 -13.171875 
L 5.40625 -20.703125 
C 7.09375 -21.59375 8.796875 -22 11 -22 
C 13.703125 -22 16.59375 -21.09375 18.796875 -19.484375 
C 21.40625 -17.578125 22.90625 -15.359375 24.5 -11.140625 
L 47.796875 52.5 
z
" id="Nimbus_Sans_L_Regular-121"/>
    </defs>
    <g transform="translate(167.637643 575.310504)scale(0.22 -0.22)">
     <use transform="translate(0 36.153639)scale(0.697382)" xlink:href="#CMR17-53"/>
     <use transform="translate(31.983182 36.153639)scale(0.697382)" xlink:href="#CMR17-51"/>
     <use transform="translate(64.464496 0)scale(0.996264)" xlink:href="#Nimbus_Sans_L_Regular-67"/>
     <use transform="translate(136.394481 0)scale(0.996264)" xlink:href="#Nimbus_Sans_L_Regular-114"/>
     <use transform="translate(197.26488 36.153639)scale(0.697382)" xlink:href="#CMR17-49"/>
     <use transform="translate(229.248062 36.153639)scale(0.697382)" xlink:href="#CMR17-54"/>
     <use transform="translate(261.231244 36.153639)scale(0.697382)" xlink:href="#CMR17-49"/>
     <use transform="translate(293.712558 0)scale(0.996264)" xlink:href="#Nimbus_Sans_L_Regular-68"/>
     <use transform="translate(365.642543 0)scale(0.996264)" xlink:href="#Nimbus_Sans_L_Regular-121"/>
    </g>
   </g>
   <g id="patch_9">
    <path d="M 334.660888 615.811724 
Q 373.043728 550.537616 411.426569 485.263508 
L 407.978516 483.235965 
Q 413.604793 479.586375 419.23107 475.936784 
Q 418.776872 482.627689 418.322675 489.318594 
L 414.874622 487.291051 
Q 376.491781 552.565159 338.108941 617.839267 
L 334.660888 615.811724 
z
" style="fill:#808080;"/>
   </g>
   <g id="text_17">
    <!-- $^{53}$Cr $^{167}$Er -->
    <defs>
     <path d="M 45.09375 61.578125 
L 45.09375 63.765625 
L 21.59375 63.765625 
C 9.90625 63.765625 9.703125 65.078125 9.296875 67 
L 7.5 67 
L 4.59375 48.34375 
L 6.40625 48.34375 
C 6.703125 50.234375 7.40625 55.3125 8.59375 57.203125 
C 9.203125 58 16.59375 58 18.296875 58 
L 40.296875 58 
L 29.203125 41.578125 
C 21.796875 30.53125 16.703125 15.609375 16.703125 2.578125 
C 16.703125 1.390625 16.703125 -2 20.296875 -2 
C 23.90625 -2 23.90625 1.390625 23.90625 2.671875 
L 23.90625 7.265625 
C 23.90625 23.5625 26.703125 34.3125 31.296875 41.1875 
z
" id="CMR17-55"/>
     <path d="M 18.296875 33 
L 58 33 
L 58 41.21875 
L 18.296875 41.21875 
L 18.296875 64.78125 
L 59.5 64.78125 
L 59.5 73 
L 9 73 
L 9 0 
L 61.296875 0 
L 61.296875 8.21875 
L 18.296875 8.21875 
z
" id="Nimbus_Sans_L_Regular-69"/>
    </defs>
    <g transform="translate(240.854917 642.379569)scale(0.22 -0.22)">
     <use transform="translate(0 36.153639)scale(0.697382)" xlink:href="#CMR17-53"/>
     <use transform="translate(31.983182 36.153639)scale(0.697382)" xlink:href="#CMR17-51"/>
     <use transform="translate(64.464496 0)scale(0.996264)" xlink:href="#Nimbus_Sans_L_Regular-67"/>
     <use transform="translate(136.394481 0)scale(0.996264)" xlink:href="#Nimbus_Sans_L_Regular-114"/>
     <use transform="translate(197.26488 36.153639)scale(0.697382)" xlink:href="#CMR17-49"/>
     <use transform="translate(229.248062 36.153639)scale(0.697382)" xlink:href="#CMR17-54"/>
     <use transform="translate(261.231244 36.153639)scale(0.697382)" xlink:href="#CMR17-55"/>
     <use transform="translate(293.712558 0)scale(0.996264)" xlink:href="#Nimbus_Sans_L_Regular-69"/>
     <use transform="translate(360.162589 0)scale(0.996264)" xlink:href="#Nimbus_Sans_L_Regular-114"/>
    </g>
   </g>
   <g id="patch_10">
    <path d="M 427.999541 623.191782 
Q 427.999541 555.734123 427.999541 488.276463 
L 423.999541 488.276463 
Q 426.999541 482.275195 429.999541 476.273927 
Q 432.999541 482.275195 435.999541 488.276463 
L 431.999541 488.276463 
Q 431.999541 555.734123 431.999541 623.191782 
L 427.999541 623.191782 
z
" style="fill:#808080;"/>
   </g>
   <g id="text_18">
    <!-- $^{53}$Cr $^{173}$Yb -->
    <defs>
     <path d="M 38.703125 28.640625 
L 66.09375 73 
L 55 73 
L 34.203125 37.453125 
L 12.796875 73 
L 1.296875 73 
L 29.40625 28.640625 
L 29.40625 0 
L 38.703125 0 
z
" id="Nimbus_Sans_L_Regular-89"/>
     <path d="M 5.40625 73 
L 5.40625 -0.03125 
L 12.90625 -0.03125 
L 12.90625 7 
C 16.90625 0.890625 22.203125 -2 29.5 -2 
C 43.296875 -2 52.296875 9.25 52.296875 26.59375 
C 52.296875 43.53125 43.703125 54 29.90625 54 
C 22.703125 54 17.59375 51.28125 13.703125 45.390625 
L 13.703125 73 
z
M 28.296875 46.1875 
C 37.59375 46.1875 43.59375 38.125 43.59375 25.703125 
C 43.59375 13.859375 37.40625 5.8125 28.296875 5.8125 
C 19.5 5.8125 13.703125 13.765625 13.703125 26 
C 13.703125 38.234375 19.5 46.1875 28.296875 46.1875 
z
" id="Nimbus_Sans_L_Regular-98"/>
    </defs>
    <g transform="translate(429.999541 649.086475)scale(0.22 -0.22)">
     <use transform="translate(0 36.153639)scale(0.697382)" xlink:href="#CMR17-53"/>
     <use transform="translate(31.983182 36.153639)scale(0.697382)" xlink:href="#CMR17-51"/>
     <use transform="translate(64.464496 0)scale(0.996264)" xlink:href="#Nimbus_Sans_L_Regular-67"/>
     <use transform="translate(136.394481 0)scale(0.996264)" xlink:href="#Nimbus_Sans_L_Regular-114"/>
     <use transform="translate(197.26488 36.153639)scale(0.697382)" xlink:href="#CMR17-49"/>
     <use transform="translate(229.248062 36.153639)scale(0.697382)" xlink:href="#CMR17-55"/>
     <use transform="translate(261.231244 36.153639)scale(0.697382)" xlink:href="#CMR17-51"/>
     <use transform="translate(293.712558 0)scale(0.996264)" xlink:href="#Nimbus_Sans_L_Regular-89"/>
     <use transform="translate(360.162589 0)scale(0.996264)" xlink:href="#Nimbus_Sans_L_Regular-98"/>
    </g>
   </g>
   <g id="patch_11">
    <path d="M 470.709618 582.854771 
Q 470.709618 534.502552 470.709618 486.150333 
L 466.709618 486.150333 
Q 469.709618 480.150882 472.709618 474.151432 
Q 475.709618 480.150882 478.709618 486.150333 
L 474.709618 486.150333 
Q 474.709618 534.502552 474.709618 582.854771 
L 470.709618 582.854771 
z
" style="fill:#5d9fb0;"/>
   </g>
   <g id="text_19">
    <!-- $^{40}$K $^{161}$Dy -->
    <g transform="translate(472.709618 608.845036)scale(0.22 -0.22)">
     <use transform="translate(0 36.153639)scale(0.697382)" xlink:href="#CMR17-52"/>
     <use transform="translate(31.983182 36.153639)scale(0.697382)" xlink:href="#CMR17-48"/>
     <use transform="translate(64.464496 0)scale(0.996264)" xlink:href="#Nimbus_Sans_L_Regular-75"/>
     <use transform="translate(158.609697 36.153639)scale(0.697382)" xlink:href="#CMR17-49"/>
     <use transform="translate(190.592879 36.153639)scale(0.697382)" xlink:href="#CMR17-54"/>
     <use transform="translate(222.576061 36.153639)scale(0.697382)" xlink:href="#CMR17-49"/>
     <use transform="translate(255.057375 0)scale(0.996264)" xlink:href="#Nimbus_Sans_L_Regular-68"/>
     <use transform="translate(326.987359 0)scale(0.996264)" xlink:href="#Nimbus_Sans_L_Regular-121"/>
    </g>
   </g>
   <g id="patch_12">
    <path d="M 482.912497 521.250933 
Q 482.912497 502.079238 482.912497 482.907543 
L 478.912497 482.907543 
Q 481.912497 476.908227 484.912497 470.90891 
Q 487.912497 476.908227 490.912497 482.907543 
L 486.912497 482.907543 
Q 486.912497 502.079238 486.912497 521.250933 
L 482.912497 521.250933 
z
" style="fill:#808080;"/>
   </g>
   <g id="text_20">
    <!-- $^{40}$K $^{167}$Er -->
    <g transform="translate(484.912497 541.775971)scale(0.22 -0.22)">
     <use transform="translate(0 36.153639)scale(0.697382)" xlink:href="#CMR17-52"/>
     <use transform="translate(31.983182 36.153639)scale(0.697382)" xlink:href="#CMR17-48"/>
     <use transform="translate(64.464496 0)scale(0.996264)" xlink:href="#Nimbus_Sans_L_Regular-75"/>
     <use transform="translate(158.609697 36.153639)scale(0.697382)" xlink:href="#CMR17-49"/>
     <use transform="translate(190.592879 36.153639)scale(0.697382)" xlink:href="#CMR17-54"/>
     <use transform="translate(222.576061 36.153639)scale(0.697382)" xlink:href="#CMR17-55"/>
     <use transform="translate(255.057375 0)scale(0.996264)" xlink:href="#Nimbus_Sans_L_Regular-69"/>
     <use transform="translate(321.507406 0)scale(0.996264)" xlink:href="#Nimbus_Sans_L_Regular-114"/>
    </g>
   </g>
   <g id="patch_13">
    <path d="M 613.321618 585.844464 
Q 588.980766 535.886188 564.639915 485.927912 
L 561.044018 487.679918 
Q 561.113034 480.972278 561.18205 474.264638 
Q 566.506879 478.344269 571.831709 482.4239 
L 568.235812 484.175906 
Q 592.576663 534.134182 616.917515 584.092458 
L 613.321618 585.844464 
z
" style="fill:#5d9fb0;"/>
   </g>
   <g id="text_21">
    <!-- $^{6}$Li $^{40}$K -->
    <defs>
     <path d="M 17.296875 73 
L 8 73 
L 8 0 
L 53.296875 0 
L 53.296875 8.21875 
L 17.296875 8.21875 
z
" id="Nimbus_Sans_L_Regular-76"/>
     <path d="M 15 52.484375 
L 6.703125 52.484375 
L 6.703125 0 
L 15 0 
z
M 15 73 
L 6.59375 73 
L 6.59375 62.484375 
L 15 62.484375 
z
" id="Nimbus_Sans_L_Regular-105"/>
    </defs>
    <g transform="translate(619.144166 608.845036)scale(0.22 -0.22)">
     <use transform="translate(0 36.153639)scale(0.697382)" xlink:href="#CMR17-54"/>
     <use transform="translate(32.481314 0)scale(0.996264)" xlink:href="#Nimbus_Sans_L_Regular-76"/>
     <use transform="translate(87.872991 0)scale(0.996264)" xlink:href="#Nimbus_Sans_L_Regular-105"/>
     <use transform="translate(137.684945 36.153639)scale(0.697382)" xlink:href="#CMR17-52"/>
     <use transform="translate(169.668127 36.153639)scale(0.697382)" xlink:href="#CMR17-48"/>
     <use transform="translate(202.149441 0)scale(0.996264)" xlink:href="#Nimbus_Sans_L_Regular-75"/>
    </g>
   </g>
   <g id="patch_14">
    <path d="M 632.23169 522.434735 
Q 617.297601 502.098512 602.363512 481.762289 
L 599.13947 484.129894 
Q 598.007031 477.519402 596.874592 470.90891 
Q 602.843094 473.967995 608.811596 477.02708 
L 605.587554 479.394685 
Q 620.521643 499.730908 635.455732 520.067131 
L 632.23169 522.434735 
z
" style="fill:#808080;"/>
   </g>
   <g id="text_22">
    <!-- $^{6}$Li $^{53}$Cr -->
    <g transform="translate(637.448484 541.775971)scale(0.22 -0.22)">
     <use transform="translate(0 36.153639)scale(0.697382)" xlink:href="#CMR17-54"/>
     <use transform="translate(32.481314 0)scale(0.996264)" xlink:href="#Nimbus_Sans_L_Regular-76"/>
     <use transform="translate(87.872991 0)scale(0.996264)" xlink:href="#Nimbus_Sans_L_Regular-105"/>
     <use transform="translate(137.684945 36.153639)scale(0.697382)" xlink:href="#CMR17-53"/>
     <use transform="translate(169.668127 36.153639)scale(0.697382)" xlink:href="#CMR17-51"/>
     <use transform="translate(202.149441 0)scale(0.996264)" xlink:href="#Nimbus_Sans_L_Regular-67"/>
     <use transform="translate(274.079426 0)scale(0.996264)" xlink:href="#Nimbus_Sans_L_Regular-114"/>
    </g>
   </g>
   <g id="legend_1">
    <g id="line2d_33">
     <path d="M 95.916051 66.474289 
L 139.916051 66.474289 
" style="fill:none;stroke:#0d153a;stroke-linecap:square;stroke-width:3;"/>
    </g>
    <g id="line2d_34"/>
    <g id="text_23">
     <!-- iHMC -->
     <defs>
      <path d="M 55.09375 33 
L 55.09375 -0.03125 
L 64.40625 -0.03125 
L 64.40625 73 
L 55.09375 73 
L 55.09375 41.21875 
L 17.59375 41.21875 
L 17.59375 73 
L 8.296875 73 
L 8.296875 -0.03125 
L 17.703125 -0.03125 
L 17.703125 33 
z
" id="Nimbus_Sans_L_Regular-72"/>
      <path d="M 46.796875 -0.03125 
L 67.296875 61.171875 
L 67.296875 -0.03125 
L 76.09375 -0.03125 
L 76.09375 73 
L 63.203125 73 
L 42 9.390625 
L 20.40625 73 
L 7.5 73 
L 7.5 -0.03125 
L 16.296875 -0.03125 
L 16.296875 61.171875 
L 37 -0.03125 
z
" id="Nimbus_Sans_L_Regular-77"/>
     </defs>
     <g transform="translate(157.516051 74.174289)scale(0.22 -0.22)">
      <use transform="scale(0.996264)" xlink:href="#Nimbus_Sans_L_Regular-105"/>
      <use transform="translate(22.116784 0)scale(0.996264)" xlink:href="#Nimbus_Sans_L_Regular-72"/>
      <use transform="translate(94.046769 0)scale(0.996264)" xlink:href="#Nimbus_Sans_L_Regular-77"/>
      <use transform="translate(177.035199 0)scale(0.996264)" xlink:href="#Nimbus_Sans_L_Regular-67"/>
     </g>
    </g>
    <g id="LineCollection_4">
     <path d="M 117.916051 108.758954 
L 117.916051 86.758954 
" style="fill:none;stroke:#0d153a;stroke-width:3;"/>
    </g>
    <g id="line2d_35">
     <g>
      <use style="fill:#0d153a;stroke:#0d153a;stroke-width:3;" x="117.916051" xlink:href="#m552194b876" y="108.758954"/>
     </g>
    </g>
    <g id="line2d_36">
     <g>
      <use style="fill:#0d153a;stroke:#0d153a;stroke-width:3;" x="117.916051" xlink:href="#m552194b876" y="86.758954"/>
     </g>
    </g>
    <g id="line2d_37"/>
    <g id="line2d_38">
     <g>
      <use style="fill:none;stroke:#0d153a;stroke-linejoin:miter;stroke-width:3;" x="117.916051" xlink:href="#md905491df6" y="97.758954"/>
     </g>
    </g>
    <g id="text_24">
     <!-- CL -->
     <g transform="translate(157.516051 105.458954)scale(0.22 -0.22)">
      <use transform="scale(0.996264)" xlink:href="#Nimbus_Sans_L_Regular-67"/>
      <use transform="translate(71.929985 0)scale(0.996264)" xlink:href="#Nimbus_Sans_L_Regular-76"/>
     </g>
    </g>
   </g>
  </g>
 </g>
 <defs>
  <clipPath id="p02ba1bc2f3">
   <rect height="429.242016" width="610.143949" x="76.116051" y="38.757984"/>
  </clipPath>
 </defs>
</svg>
