<?xml version="1.0" encoding="UTF-8" standalone="no"?>
<!-- Generator: Adobe Illustrator 19.0.0, SVG Export Plug-In . SVG Version: 6.00 Build 0)  -->

<svg
   version="1.1"
   id="Capa_1"
   x="0px"
   y="0px"
   viewBox="0 0 512 512"
   style="enable-background:new 0 0 512 512;"
   xml:space="preserve"
   sodipodi:docname="location_virtual_poster.svg"
   inkscape:version="1.1 (1:1.1+202105261517+ce6663b3b7)"
   xmlns:inkscape="http://www.inkscape.org/namespaces/inkscape"
   xmlns:sodipodi="http://sodipodi.sourceforge.net/DTD/sodipodi-0.dtd"
   xmlns="http://www.w3.org/2000/svg"
   xmlns:svg="http://www.w3.org/2000/svg"><defs
   id="defs121">
	

		
	</defs><sodipodi:namedview
   id="namedview119"
   pagecolor="#ffffff"
   bordercolor="#666666"
   borderopacity="1.0"
   inkscape:pageshadow="2"
   inkscape:pageopacity="0.0"
   inkscape:pagecheckerboard="0"
   showgrid="false"
   inkscape:zoom="1.5917969"
   inkscape:cx="292.12269"
   inkscape:cy="256"
   inkscape:window-width="1490"
   inkscape:window-height="978"
   inkscape:window-x="192"
   inkscape:window-y="127"
   inkscape:window-maximized="0"
   inkscape:current-layer="Capa_1" />
<g
   id="g1979"
   style="opacity:0.6"><ellipse
     style="fill:#4f7cac;fill-opacity:1;stroke-width:4.02898;stroke-linecap:round;stroke-linejoin:round;paint-order:stroke fill markers"
     id="path4147"
     cx="53.836834"
     cy="386.57556"
     rx="28.852051"
     ry="28.586245" /><ellipse
     style="fill:#4f7cac;fill-opacity:1;stroke-width:4.02898;stroke-linecap:round;stroke-linejoin:round;paint-order:stroke fill markers"
     id="path4147-3"
     cx="257.07608"
     cy="459.74426"
     rx="28.852051"
     ry="28.586245" /><ellipse
     style="fill:#4f7cac;fill-opacity:1;stroke-width:4.02898;stroke-linecap:round;stroke-linejoin:round;paint-order:stroke fill markers"
     id="path4147-6"
     cx="458.00208"
     cy="386.20172"
     rx="28.852051"
     ry="28.586245" /><g
     id="g4437"
     style="fill:#4f7cac;fill-opacity:1"><ellipse
       style="fill:#4f7cac;fill-opacity:1;stroke-width:13.0517;stroke-linecap:round;stroke-linejoin:round;paint-order:stroke fill markers"
       id="path4147-7"
       cx="196.89613"
       cy="114.75252"
       rx="100.25047"
       ry="86.335922" /><ellipse
       style="fill:#4f7cac;fill-opacity:1;stroke-width:13.2727;stroke-linecap:round;stroke-linejoin:round;paint-order:stroke fill markers"
       id="path4147-5"
       cx="315.91333"
       cy="127.1573"
       rx="97.402206"
       ry="91.895149" /><rect
       style="fill:#4f7cac;fill-opacity:1;stroke-width:3.80304;stroke-linecap:round;stroke-linejoin:round;paint-order:stroke fill markers"
       id="rect4352"
       width="465.58945"
       height="178.91368"
       x="20.683538"
       y="119.6296"
       ry="89.456841" /></g></g><path
   d="m 457,331.723 c -25.127,0 -46.356,16.943 -52.904,40 H 351 v -58.555 h 54.213 C 464.096,313.168 512,265.264 512,206.381 512,159.17 480.688,117.696 436.236,104.188 422.799,50.384 374.231,11.795 317.982,11.795 c -21.805,0 -42.693,5.623 -61.127,16.366 C 237.332,10.307 211.733,0.277 184.836,0.277 127.143,0.277 79.989,46.268 78.107,103.51 32.446,116.273 0,158.08 0,206.381 0,265.264 47.904,313.168 106.787,313.168 H 161 v 58.555 h -53.096 c -6.547,-23.057 -27.777,-40 -52.904,-40 -30.327,0 -55,24.673 -55,55 0,30.327 24.673,55 55,55 25.127,0 46.356,-16.943 52.904,-40 H 176 c 8.284,0 15,-6.716 15,-15 v -73.555 h 50 v 90.651 c -23.057,6.547 -40,27.777 -40,52.904 0,30.327 24.673,55 55,55 30.327,0 55,-24.673 55,-55 0,-25.127 -16.943,-46.356 -40,-52.904 v -90.651 h 50 v 73.555 c 0,8.284 6.716,15 15,15 h 68.096 c 6.547,23.057 27.777,40 52.904,40 30.327,0 55,-24.673 55,-55 0,-30.327 -24.673,-55 -55,-55 z m -402,80 c -13.785,0 -25,-11.215 -25,-25 0,-13.785 11.215,-25 25,-25 13.785,0 25,11.215 25,25 0,13.785 -11.215,25 -25,25 z m 226,45 c 0,13.785 -11.215,25 -25,25 -13.785,0 -25,-11.215 -25,-25 0,-13.785 11.215,-25 25,-25 13.785,0 25,11.215 25,25 z M 106.787,283.168 C 64.447,283.168 30,248.722 30,206.381 c 0,-37.843 28.207,-70.506 65.61,-75.976 7.893,-1.154 13.501,-8.284 12.765,-16.226 -0.217,-2.343 -0.327,-4.737 -0.327,-7.116 0,-42.339 34.447,-76.785 76.787,-76.785 22.59,0 43.893,9.82 58.445,26.942 5.109,6.011 14,7.037 20.345,2.349 15.732,-11.628 34.528,-17.774 54.356,-17.774 45.628,0 83.573,33.479 90.666,77.03 1.003,6.158 5.714,11.052 11.829,12.29 35.649,7.217 61.523,38.87 61.523,75.266 0,42.341 -34.447,76.787 -76.787,76.787 z M 457,411.723 c -13.785,0 -25,-11.215 -25,-25 0,-13.785 11.215,-25 25,-25 13.785,0 25,11.215 25,25 0,13.785 -11.215,25 -25,25 z"
   id="path82"
   style="fill:#000000;fill-opacity:1" />
<g
   id="g88">
</g>
<g
   id="g90">
</g>
<g
   id="g92">
</g>
<g
   id="g94">
</g>
<g
   id="g96">
</g>
<g
   id="g98">
</g>
<g
   id="g100">
</g>
<g
   id="g102">
</g>
<g
   id="g104">
</g>
<g
   id="g106">
</g>
<g
   id="g108">
</g>
<g
   id="g110">
</g>
<g
   id="g112">
</g>
<g
   id="g114">
</g>
<g
   id="g116">
</g>
</svg>
