<?xml version="1.0" encoding="UTF-8" standalone="no"?>
<svg
   xmlns:dc="http://purl.org/dc/elements/1.1/"
   xmlns:cc="http://creativecommons.org/ns#"
   xmlns:rdf="http://www.w3.org/1999/02/22-rdf-syntax-ns#"
   xmlns:svg="http://www.w3.org/2000/svg"
   xmlns="http://www.w3.org/2000/svg"
   xmlns:sodipodi="http://sodipodi.sourceforge.net/DTD/sodipodi-0.dtd"
   xmlns:inkscape="http://www.inkscape.org/namespaces/inkscape"
   version="1.1"
   id="Capa_1"
   x="0px"
   y="0px"
   width="512"
   height="402.28711"
   viewBox="0 0 550.795 432.769"
   xml:space="preserve"
   class=""
   sodipodi:docname="mail.svg"
   inkscape:version="0.92.3 (2405546, 2018-03-11)"><metadata
   id="metadata922"><rdf:RDF><cc:Work
       rdf:about=""><dc:format>image/svg+xml</dc:format><dc:type
         rdf:resource="http://purl.org/dc/dcmitype/StillImage" /><dc:title></dc:title></cc:Work></rdf:RDF></metadata><defs
   id="defs920">
	

		
		
		
		
	</defs><sodipodi:namedview
   pagecolor="#ffffff"
   bordercolor="#666666"
   borderopacity="1"
   objecttolerance="10"
   gridtolerance="10"
   guidetolerance="10"
   inkscape:pageopacity="0"
   inkscape:pageshadow="2"
   inkscape:window-width="1920"
   inkscape:window-height="1025"
   id="namedview918"
   showgrid="false"
   fit-margin-top="0"
   fit-margin-left="0"
   fit-margin-right="0"
   fit-margin-bottom="0"
   inkscape:zoom="1.6484375"
   inkscape:cx="256"
   inkscape:cy="201.14355"
   inkscape:window-x="0"
   inkscape:window-y="27"
   inkscape:window-maximized="1"
   inkscape:current-layer="Capa_1" /><path
   style="fill:#ffffff;fill-opacity:0.97740114"
   inkscape:connector-curvature="0"
   id="path903"
   data-old_color="#161111"
   class="active-path"
   data-original="#000000"
   d="m 501.613,432.769 c 12.381,0 23.109,-4.088 32.229,-12.16 L 377.793,264.554 c -3.744,2.681 -7.373,5.288 -10.801,7.767 -11.678,8.604 -21.156,15.318 -28.434,20.129 -7.277,4.822 -16.959,9.737 -29.045,14.755 -12.094,5.024 -23.361,7.528 -33.813,7.528 h -0.306 -0.306 c -10.453,0 -21.72,-2.503 -33.813,-7.528 -12.093,-5.018 -21.775,-9.933 -29.045,-14.755 -7.277,-4.811 -16.75,-11.524 -28.434,-20.129 -3.256,-2.387 -6.867,-5.006 -10.771,-7.809 L 16.946,420.609 c 9.119,8.072 19.854,12.16 32.234,12.16 z" /><path
   style="fill:#ffffff;fill-opacity:0.97740114"
   inkscape:connector-curvature="0"
   id="path905"
   data-old_color="#161111"
   class="active-path"
   data-original="#000000"
   d="M 31.047,166.286 C 19.37,158.501 9.015,149.585 0,139.542 V 376.967 L 137.541,239.426 C 110.025,220.216 74.572,195.864 31.047,166.286 Z" /><path
   style="fill:#ffffff;fill-opacity:0.97740114"
   inkscape:connector-curvature="0"
   id="path907"
   data-old_color="#161111"
   class="active-path"
   data-original="#000000"
   d="m 520.059,166.286 c -41.865,28.336 -77.447,52.73 -106.75,73.195 L 550.795,376.973 V 139.542 c -8.815,9.841 -19.059,18.751 -30.736,26.744 z" /><path
   style="fill:#ffffff;fill-opacity:0.97740114"
   inkscape:connector-curvature="0"
   id="path909"
   data-old_color="#161111"
   class="active-path"
   data-original="#000000"
   d="M 501.613,0 H 49.181 C 33.397,0 21.262,5.33 12.761,15.979 4.253,26.633 0.006,39.957 0.006,55.936 c 0,12.907 5.636,26.892 16.903,41.959 11.267,15.061 23.256,26.891 35.961,35.496 6.965,4.921 27.969,19.523 63.012,43.801 18.917,13.109 35.368,24.535 49.505,34.395 12.05,8.396 22.442,15.667 31.022,21.701 0.985,0.691 2.534,1.799 4.59,3.269 2.215,1.591 5.018,3.61 8.476,6.107 6.659,4.816 12.191,8.709 16.597,11.683 4.4,2.975 9.731,6.298 15.985,9.988 6.249,3.685 12.143,6.456 17.675,8.299 5.533,1.842 10.655,2.766 15.367,2.766 h 0.306 0.306 c 4.711,0 9.834,-0.924 15.368,-2.766 5.531,-1.843 11.42,-4.608 17.674,-8.299 6.248,-3.69 11.572,-7.02 15.986,-9.988 4.406,-2.974 9.938,-6.866 16.598,-11.683 3.451,-2.497 6.254,-4.517 8.469,-6.102 2.057,-1.476 3.605,-2.577 4.596,-3.274 6.684,-4.651 17.1,-11.892 31.104,-21.616 25.482,-17.705 63.01,-43.764 112.742,-78.281 14.957,-10.447 27.453,-23.054 37.496,-37.803 10.025,-14.749 15.051,-30.22 15.051,-46.408 0,-13.525 -4.873,-25.098 -14.598,-34.737 C 526.461,4.816 514.932,0 501.613,0 Z" /> </svg>